<svg width="32" height="33" viewBox="0 0 32 33" fill="none" xmlns="http://www.w3.org/2000/svg">
<path opacity="0.2" d="M8.99983 20.5225L11.9998 23.5225C11.9998 23.5225 10.9998 27.5225 4.99983 27.5225C4.99983 21.5225 8.99983 20.5225 8.99983 20.5225ZM16.9998 9.52246H9.29358C9.02872 9.52258 8.77472 9.62778 8.58733 9.81496L4.29358 14.1087C4.16249 14.2401 4.07054 14.4054 4.02804 14.586C3.98554 14.7667 3.99415 14.9556 4.05292 15.1317C4.11169 15.3077 4.2183 15.464 4.36081 15.5829C4.50331 15.7018 4.6761 15.7787 4.85983 15.805L9.99983 16.5225L16.9998 9.52246ZM15.9998 22.5225L16.7173 27.6625C16.7436 27.8462 16.8205 28.019 16.9394 28.1615C17.0583 28.304 17.2146 28.4106 17.3906 28.4694C17.5667 28.5281 17.7556 28.5368 17.9363 28.4943C18.1169 28.4518 18.2822 28.3598 18.4136 28.2287L22.7073 23.935C22.8945 23.7476 22.9997 23.4936 22.9998 23.2287V15.5225L15.9998 22.5225Z" fill="#6448E7"/>
<path d="M12.9712 23.7653C12.9225 23.9591 11.7037 28.5228 4.99999 28.5228C4.73477 28.5228 4.48042 28.4175 4.29288 28.23C4.10534 28.0424 3.99999 27.7881 3.99999 27.5228C3.99999 20.8191 8.56374 19.6003 8.75749 19.5516C9.01491 19.4873 9.28734 19.5279 9.51485 19.6644C9.74235 19.801 9.9063 20.0223 9.97061 20.2797C10.0349 20.5371 9.99435 20.8096 9.8578 21.0371C9.72125 21.2646 9.49991 21.4285 9.24249 21.4928C9.12999 21.5241 6.43999 22.3103 6.04749 26.4753C10.2125 26.0828 11 23.3978 11.0325 23.2728C11.0988 23.0158 11.2645 22.7955 11.4932 22.6606C11.7219 22.5257 11.9948 22.4872 12.2519 22.5535C12.509 22.6198 12.7292 22.7855 12.8641 23.0142C12.999 23.2428 13.0375 23.5158 12.9712 23.7728V23.7653ZM24.5962 15.3403L24 15.9366V23.2278C24.0015 23.4915 23.9505 23.7528 23.8501 23.9966C23.7497 24.2404 23.6018 24.4617 23.415 24.6478L19.125 28.9353C18.94 29.1217 18.7199 29.2695 18.4775 29.3703C18.2351 29.4712 17.9751 29.523 17.7125 29.5228C17.4958 29.5228 17.2805 29.4878 17.075 29.4191C16.7221 29.3024 16.4089 29.0893 16.1708 28.8039C15.9327 28.5185 15.7791 28.1722 15.7275 27.8041L15.0562 22.9928L9.52999 17.4666L4.72124 16.7953C4.35267 16.7437 4.00583 16.5901 3.71974 16.3521C3.43366 16.114 3.21968 15.8009 3.10187 15.4478C2.98406 15.0948 2.96709 14.7159 3.05288 14.3537C3.13868 13.9915 3.32382 13.6605 3.58749 13.3978L7.87499 9.10784C8.06108 8.92108 8.28246 8.77317 8.52624 8.67274C8.77002 8.57231 9.03134 8.52136 9.29499 8.52284H16.5862L17.1825 7.92659C20.5175 4.59284 24.5362 4.44909 26.1087 4.54284C26.5963 4.57248 27.0562 4.77953 27.4016 5.12495C27.747 5.47036 27.9541 5.93025 27.9837 6.41784C28.075 7.98659 27.9312 12.0053 24.5975 15.3403H24.5962ZM4.99999 14.8153L9.64374 15.4628L14.5862 10.5228H9.29499L4.99999 14.8153ZM11.415 16.5228L16 21.1078L23.1812 13.9266C24.149 12.9653 24.8998 11.8081 25.3832 10.5326C25.8666 9.25703 26.0714 7.89282 25.9837 6.53159C24.6232 6.44715 23.2603 6.65401 21.9862 7.13838C20.712 7.62274 19.5558 8.37345 18.595 9.34034L11.415 16.5228ZM22 17.9366L17.0587 22.8778L17.7087 27.5228L22 23.2278V17.9366Z" fill="#6448E7"/>
</svg>
