<svg width="32" height="33" viewBox="0 0 32 33" fill="none" xmlns="http://www.w3.org/2000/svg">
<path opacity="0.2" d="M25.9824 15.9199L28.0799 13.2949C27.797 12.2314 27.3736 11.2103 26.8211 10.2586L23.4836 9.88363C23.217 9.58325 22.9327 9.299 22.6324 9.03238L22.2574 5.69363C21.3046 5.14442 20.2832 4.72408 19.2199 4.44363L16.5949 6.53988C16.1935 6.51613 15.7912 6.51613 15.3899 6.53988L12.7649 4.44238C11.7048 4.72613 10.6872 5.14941 9.73861 5.70113L9.36361 9.03863C9.06323 9.30525 8.77898 9.5895 8.51236 9.88988L5.17361 10.2649C4.6244 11.2176 4.20407 12.239 3.92361 13.3024L6.01986 15.9274C5.99611 16.3287 5.99611 16.7311 6.01986 17.1324L3.92236 19.7574C4.20527 20.8209 4.62858 21.8419 5.18111 22.7936L8.51861 23.1686C8.78523 23.469 9.06948 23.7533 9.36986 24.0199L9.74486 27.3586C10.6976 27.9078 11.719 28.3282 12.7824 28.6086L15.4074 26.5124C15.8087 26.5361 16.211 26.5361 16.6124 26.5124L19.2374 28.6099C20.3008 28.327 21.3219 27.9037 22.2736 27.3511L22.6486 24.0136C22.949 23.747 23.2332 23.4628 23.4999 23.1624L26.8386 22.7874C27.3878 21.8346 27.8082 20.8132 28.0886 19.7499L25.9924 17.1249C26.0128 16.7234 26.0094 16.321 25.9824 15.9199ZM15.9999 21.5224C15.011 21.5224 14.0443 21.2291 13.222 20.6797C12.3998 20.1303 11.7589 19.3494 11.3805 18.4358C11.002 17.5222 10.903 16.5168 11.0959 15.5469C11.2889 14.577 11.7651 13.6861 12.4643 12.9868C13.1636 12.2876 14.0545 11.8114 15.0244 11.6185C15.9943 11.4255 16.9997 11.5245 17.9133 11.903C18.8269 12.2814 19.6078 12.9223 20.1572 13.7445C20.7066 14.5668 20.9999 15.5335 20.9999 16.5224C20.9999 17.8485 20.4731 19.1202 19.5354 20.0579C18.5977 20.9956 17.3259 21.5224 15.9999 21.5224Z" fill="#6448E7"/>
<path d="M16.0001 10.5225C14.8134 10.5225 13.6533 10.8744 12.6666 11.5337C11.6799 12.193 10.9109 13.1301 10.4568 14.2264C10.0027 15.3228 9.88384 16.5292 10.1153 17.6931C10.3469 18.8569 10.9183 19.926 11.7574 20.7652C12.5965 21.6043 13.6656 22.1757 14.8295 22.4072C15.9934 22.6387 17.1998 22.5199 18.2962 22.0658C19.3925 21.6117 20.3296 20.8426 20.9889 19.8559C21.6482 18.8692 22.0001 17.7092 22.0001 16.5225C21.9984 14.9317 21.3657 13.4066 20.2409 12.2817C19.116 11.1568 17.5909 10.5242 16.0001 10.5225ZM16.0001 20.5225C15.2089 20.5225 14.4356 20.2879 13.7778 19.8484C13.12 19.4089 12.6073 18.7842 12.3045 18.0533C12.0018 17.3223 11.9226 16.5181 12.0769 15.7422C12.2313 14.9662 12.6122 14.2535 13.1716 13.6941C13.731 13.1347 14.4438 12.7537 15.2197 12.5994C15.9956 12.445 16.7999 12.5243 17.5308 12.827C18.2617 13.1298 18.8864 13.6424 19.3259 14.3002C19.7655 14.958 20.0001 15.7314 20.0001 16.5225C20.0001 17.5834 19.5786 18.6008 18.8285 19.3509C18.0783 20.1011 17.0609 20.5225 16.0001 20.5225ZM27.0001 16.7925C27.0051 16.6125 27.0051 16.4325 27.0001 16.2525L28.8651 13.9225C28.9628 13.8002 29.0305 13.6566 29.0627 13.5033C29.0948 13.35 29.0905 13.1913 29.0501 13.04C28.7438 11.891 28.2865 10.7876 27.6901 9.75877C27.6119 9.62417 27.5034 9.50967 27.3732 9.42438C27.243 9.3391 27.0947 9.28539 26.9401 9.26752L23.9751 8.93752C23.8517 8.80752 23.7267 8.68252 23.6001 8.56252L23.2501 5.59002C23.2321 5.43528 23.1782 5.28689 23.0926 5.15668C23.0071 5.02647 22.8924 4.91803 22.7576 4.84002C21.7288 4.24408 20.6254 3.78758 19.4763 3.48252C19.325 3.44209 19.1663 3.43777 19.013 3.46991C18.8597 3.50204 18.7161 3.56973 18.5938 3.66752L16.2701 5.52252C16.0901 5.52252 15.9101 5.52252 15.7301 5.52252L13.4001 3.66127C13.2777 3.56348 13.1341 3.49579 12.9808 3.46366C12.8276 3.43152 12.6689 3.43584 12.5176 3.47627C11.3685 3.78255 10.2651 4.23987 9.23631 4.83627C9.1017 4.91443 8.9872 5.02292 8.90192 5.15313C8.81664 5.28333 8.76292 5.43165 8.74506 5.58627L8.41506 8.55627C8.28506 8.68044 8.16006 8.80544 8.04006 8.93127L5.06756 9.27252C4.91282 9.29052 4.76443 9.34442 4.63422 9.42993C4.50401 9.51544 4.39557 9.63018 4.31756 9.76502C3.72174 10.794 3.26485 11.8973 2.95881 13.0463C2.91855 13.1977 2.91444 13.3564 2.94679 13.5097C2.97914 13.663 3.04705 13.8065 3.14506 13.9288L5.00006 16.2525C5.00006 16.4325 5.00006 16.6125 5.00006 16.7925L3.13881 19.1225C3.04102 19.2449 2.97333 19.3884 2.9412 19.5417C2.90906 19.695 2.91338 19.8537 2.95381 20.005C3.26009 21.1541 3.71741 22.2575 4.31381 23.2863C4.39196 23.4209 4.50046 23.5354 4.63067 23.6207C4.76087 23.7059 4.90919 23.7597 5.06381 23.7775L8.02881 24.1075C8.15297 24.2375 8.27797 24.3625 8.40381 24.4825L8.75006 27.455C8.76806 27.6098 8.82196 27.7581 8.90747 27.8884C8.99298 28.0186 9.10772 28.127 9.24256 28.205C10.2715 28.8008 11.3749 29.2577 12.5238 29.5638C12.6752 29.604 12.834 29.6081 12.9872 29.5758C13.1405 29.5434 13.2841 29.4755 13.4063 29.3775L15.7301 27.5225C15.9101 27.5275 16.0901 27.5275 16.2701 27.5225L18.6001 29.3875C18.7224 29.4853 18.866 29.553 19.0193 29.5851C19.1726 29.6173 19.3312 29.6129 19.4826 29.5725C20.6318 29.2668 21.7352 28.8094 22.7638 28.2125C22.8984 28.1344 23.0129 28.0259 23.0982 27.8957C23.1835 27.7655 23.2372 27.6171 23.2551 27.4625L23.5851 24.4975C23.7151 24.3742 23.8401 24.2492 23.9601 24.1225L26.9326 23.7725C27.0873 23.7545 27.2357 23.7006 27.3659 23.6151C27.4961 23.5296 27.6045 23.4149 27.6826 23.28C28.2784 22.2511 28.7353 21.1477 29.0413 19.9988C29.0816 19.8474 29.0857 19.6886 29.0533 19.5353C29.021 19.382 28.9531 19.2385 28.8551 19.1163L27.0001 16.7925ZM24.9876 15.98C25.0088 16.3414 25.0088 16.7037 24.9876 17.065C24.9727 17.3124 25.0502 17.5565 25.2051 17.75L26.9788 19.9663C26.7753 20.6131 26.5147 21.2406 26.2001 21.8413L23.3751 22.1613C23.129 22.1886 22.9019 22.3062 22.7376 22.4913C22.4969 22.7619 22.2407 23.0182 21.9701 23.2588C21.7849 23.4231 21.6674 23.6503 21.6401 23.8963L21.3263 26.7188C20.7257 27.0335 20.0982 27.2941 19.4513 27.4975L17.2338 25.7238C17.0564 25.582 16.8359 25.5048 16.6088 25.505H16.5488C16.1875 25.5263 15.8252 25.5263 15.4638 25.505C15.2165 25.4908 14.9726 25.5683 14.7788 25.7225L12.5563 27.4975C11.9095 27.294 11.282 27.0334 10.6813 26.7188L10.3613 23.8975C10.334 23.6515 10.2164 23.4244 10.0313 23.26C9.76069 23.0194 9.50442 22.7631 9.26381 22.4925C9.09947 22.3074 8.87233 22.1898 8.62631 22.1625L5.80381 21.8475C5.48905 21.2469 5.22843 20.6194 5.02506 19.9725L6.79881 17.755C6.95369 17.5615 7.0312 17.3174 7.01631 17.07C6.99506 16.7087 6.99506 16.3464 7.01631 15.985C7.0312 15.7376 6.95369 15.4935 6.79881 15.3L5.02506 13.0788C5.22859 12.4319 5.4892 11.8045 5.80381 11.2038L8.62506 10.8838C8.87108 10.8565 9.09822 10.7389 9.26256 10.5538C9.50317 10.2832 9.75944 10.0269 10.0301 9.78627C10.2159 9.62183 10.334 9.39416 10.3613 9.14752L10.6751 6.32627C11.2757 6.01151 11.9032 5.75089 12.5501 5.54752L14.7676 7.32127C14.961 7.47615 15.2052 7.55366 15.4526 7.53877C15.8139 7.51752 16.1762 7.51752 16.5376 7.53877C16.7849 7.55294 17.0287 7.47551 17.2226 7.32127L19.4438 5.54752C20.0906 5.75105 20.7181 6.01166 21.3188 6.32627L21.6388 9.14752C21.6661 9.39354 21.7837 9.62068 21.9688 9.78502C22.2394 10.0256 22.4957 10.2819 22.7363 10.5525C22.9006 10.7376 23.1278 10.8552 23.3738 10.8825L26.1963 11.1963C26.5111 11.7969 26.7717 12.4244 26.9751 13.0713L25.2013 15.2888C25.0449 15.4839 24.9673 15.7305 24.9838 15.98H24.9876Z" fill="#6448E7"/>
</svg>
